<?xml version="1.0" standalone="no"?>
<!DOCTYPE svg PUBLIC "-//W3C//DTD SVG 20010904//EN"
 "http://www.w3.org/TR/2001/REC-SVG-20010904/DTD/svg10.dtd">
<svg version="1.0" xmlns="http://www.w3.org/2000/svg"
 width="200.000000pt" height="200.000000pt" viewBox="0 0 200.000000 200.000000"
 preserveAspectRatio="xMidYMid meet">
<metadata>
Created by potrace 1.16, written by Peter Selinger 2001-2019
</metadata>
<g transform="translate(0.000000,200.000000) scale(0.100000,-0.100000)"
fill="#000000" stroke="none">
<path d="M443 1469 c-8 -8 -13 -43 -13 -96 0 -80 1 -84 26 -93 14 -6 77 -10
140 -10 l114 0 0 -263 c0 -191 -3 -266 -12 -275 -16 -16 -154 -16 -165 1 -4 6
-12 30 -18 52 l-10 40 -83 3 c-53 2 -89 -1 -98 -9 -19 -15 -19 -131 0 -167 8
-15 42 -51 76 -80 l62 -52 156 0 156 0 72 73 73 73 1 389 c0 230 -4 396 -10
405 -8 12 -47 16 -232 18 -169 2 -226 0 -235 -9z"/>
<path d="M1105 1470 c-11 -4 -49 -38 -85 -74 l-65 -67 -1 -97 c-3 -176 0 -188
74 -264 l65 -68 103 0 c56 0 114 -4 128 -10 24 -9 26 -14 26 -74 0 -85 -11
-96 -99 -96 -78 0 -91 9 -91 63 0 70 -10 77 -105 77 -100 0 -105 -5 -105 -99
0 -82 11 -106 83 -178 l61 -63 159 0 159 0 72 69 71 70 3 136 c4 134 3 137
-23 175 -14 21 -40 51 -58 66 -66 61 -75 64 -187 64 -69 0 -110 4 -118 12 -16
16 -16 130 0 146 12 12 134 17 162 6 11 -4 16 -19 16 -44 0 -21 4 -50 10 -64
9 -25 12 -26 94 -26 54 0 87 4 92 12 11 18 17 150 7 174 -13 33 -102 133 -134
149 -31 17 -278 20 -314 5z"/>
</g>
</svg>
